<?xml version="1.0" encoding="UTF-8"?><svg id="Laag_2" xmlns="http://www.w3.org/2000/svg" viewBox="0 0 1010.78 531.3"><defs><style>.cls-1,.cls-2{stroke-miterlimit:11.34;}.cls-1,.cls-2,.cls-3{fill:none;stroke:#e30613;stroke-width:.28px;}.cls-2,.cls-3{stroke-linecap:round;}.cls-3{stroke-miterlimit:11.34;}</style></defs><g id="box_-_case_0.12_kerf"><path id="left_outsideCutPath" class="cls-3" d="M666.88,443.17h28.06v8.5h29.42v-8.5h28.06v8.5h29.42v-8.5h28.06v8.5h29.42v-8.5h28.06v8.5h29.42v-8.5h28.06v8.5h29.42v-8.5h28.06v8.5h19.76v-19.36h8.5v-29.42h-8.5v-19.36h-355.01v19.36h-8.5v29.42h8.5v19.36h19.76v-8.5Z" vector-effect="non-scaling-stroke"/><path id="back_outsideCutPath" class="cls-3" d="M42.41,443.15h28.06v8.5h29.42v-8.5h28.06v8.5h29.42v-8.5h28.06v8.5h29.42v-8.5h28.06v8.5h29.42v-8.5h28.06v8.5h29.42v-8.5h28.06v8.5h29.42v-8.5h28.06v8.5h29.42v-8.5h28.06v8.5h29.42v-8.5h28.06v8.5h29.42v-8.5h28.06v8.5h42.26v-20.04h-8.5v-28.06h8.5v-20.04H.14v20.04h8.5v28.06H.14v20.04h42.26v-8.5Z" vector-effect="non-scaling-stroke"/><rect class="cls-1" x="939.72" y="462.97" width="22.68" height="31.27" rx="7.14" ry="7.14" transform="translate(472.45 1429.65) rotate(-90)"/><path id="right_outsideCutPath" class="cls-3" d="M666.88,522.65h28.06v8.5h29.42v-8.5h28.06v8.5h29.42v-8.5h28.06v8.5h29.42v-8.5h28.06v8.5h29.42v-8.5h28.06v8.5h29.42v-8.5h28.06v8.5h19.76v-19.36h8.5v-29.42h-8.5v-19.36h-355.01v19.36h-8.5v29.42h8.5v19.36h19.76v-8.5Z" vector-effect="non-scaling-stroke"/><circle class="cls-2" cx="18.2" cy="17.57" r="2.83"/><path id="bottom_outsideCutPath" class="cls-3" d="M71.15,363.66h28.06v8.5h29.42v-8.5h28.06v8.5h29.42v-8.5h28.06v8.5h29.42v-8.5h28.06v8.5h29.42v-8.5h28.06v8.5h29.42v-8.5h28.06v8.5h29.42v-8.5h28.06v8.5h29.42v-8.5h28.06v8.5h29.42v-8.5h28.06v8.5h29.42v-8.5h33.08v-19.08h8.5v-29.42h-8.5v-28.06h8.5v-29.42h-8.5v-28.06h8.5v-29.42h-8.5v-28.06h8.5v-29.42h-8.5v-28.06h8.5v-29.42h-8.5v-28.06h8.5v-29.42h-8.5V8.65h-33.08V.14h-29.42v8.5h-28.06V.14h-29.42v8.5h-28.06V.14h-29.42v8.5h-28.06V.14h-29.42v8.5h-28.06V.14h-29.42v8.5h-28.06V.14h-29.42v8.5h-28.06V.14h-29.42v8.5h-28.06V.14h-29.42v8.5h-28.06V.14h-29.42v8.5h-28.06V.14h-29.42v8.5H8.65v19.08H.14v29.42h8.5v28.06H.14v29.42h8.5v28.06H.14v29.42h8.5v28.06H.14v29.42h8.5v28.06H.14v29.42h8.5v28.06H.14v29.42h8.5v19.08h33.08v8.5h29.42v-8.5Z" vector-effect="non-scaling-stroke"/><circle class="cls-2" cx="18.2" cy="354.74" r="2.83"/><circle class="cls-2" cx="612.06" cy="354.1" r="2.83"/><circle class="cls-2" cx="612.06" cy="18.19" r="2.83"/><path id="front_outsideCutPath" class="cls-3" d="M42.41,522.65h28.06v8.5h29.42v-8.5h28.06v8.5h29.42v-8.5h28.06v8.5h29.42v-8.5h28.06v8.5h29.42v-8.5h28.06v8.5h29.42v-8.5h28.06v8.5h29.42v-8.5h28.06v8.5h29.42v-8.5h28.06v8.5h29.42v-8.5h28.06v8.5h29.42v-8.5h28.06v8.5h42.26v-20.04h-8.5v-28.06h8.5v-20.04H.14v20.04h8.5v28.06H.14v20.04h42.26v-8.5Z" vector-effect="non-scaling-stroke"/></g></svg>