<?xml version="1.0" encoding="UTF-8"?><svg id="Laag_2" xmlns="http://www.w3.org/2000/svg" viewBox="0 0 629.59 371.63"><defs><style>.cls-1{fill:none;stroke:#e30613;stroke-miterlimit:10;stroke-width:.28px;}</style></defs><g id="topplate_-_grass_layer_2mm"><polygon class="cls-1" points=".14 .14 .15 371.49 629.45 371.49 629.45 .14 .14 .14"/><path class="cls-1" d="M589.37,46.48c8.61,0,15.59,6.98,15.59,15.59s-6.98,15.59-15.59,15.59-15.59-6.97-15.59-15.59,6.98-15.59,15.59-15.59Z"/><path class="cls-1" d="M589.37,90.4c8.61,0,15.59,6.98,15.59,15.59s-6.98,15.59-15.59,15.59-15.59-6.97-15.59-15.59,6.98-15.59,15.59-15.59Z"/><path class="cls-1" d="M515.15,15.11c24.42,0,44.54,18.79,46.65,42.67h-8.55c-2.1-19.15-18.39-34.11-38.1-34.11-21.14,0-38.34,17.2-38.34,38.34,0,19.21,14.22,35.17,32.68,37.91l.04,17.89c-4.95.87-9.51,2.84-13.42,5.68l-6.19-6.01c3.32-2.6,7.05-4.71,11.09-6.2v-4.68c-8.15-2.59-15.5-7.39-21.19-13.93-7.42-8.53-11.51-19.44-11.51-30.72,0-25.83,21.01-46.84,46.84-46.84Z"/><path class="cls-1" d="M577.15,209.82c-5.29,6.25-13.56,11.7-23.78,15.62-4.65-14.38-17.21-25.23-32.53-27.39v-5.72c15.02,1.83,28.18,10.96,35.18,24.72.23.45.63.61.9.61.12,0,.24-.03.36-.09,4.36-2.13,8.17-4.56,11.32-7.23.37-.32.28-.82.03-1.15-3.33-4.47-5.09-9.78-5.09-15.34s1.76-10.87,5.1-15.34c.25-.35.33-.86-.02-1.16-4.76-4.02-11.13-7.56-18.43-10.24-.09-.03-.18-.05-.26-.05-.27,0-.65.16-.88.59-5.75,10.95-16.24,18.31-28.2,20.1v-5.74c11.98-2.13,21.71-10.8,25.35-22.17,13.47,3.92,24.46,10.34,30.96,18.03-4.82,3.68-7.95,9.46-7.95,15.98s3.13,12.3,7.94,15.97Z"/><path class="cls-1" d="M515.15,171.17c-11.72,0-21.26-9.53-21.26-21.25s9.54-21.26,21.26-21.26,21.26,9.53,21.26,21.26-9.54,21.25-21.26,21.25Z"/><path class="cls-1" d="M472.32,171.85c4.56,6.46,6.97,14.06,6.97,21.98s-2.41,15.53-6.97,22c-.27.38-.23.74-.19.91.1.39.37.53.46.57l.51.25c.13.06.25.09.38.09.29,0,.69-.16.91-.6,7-13.74,20.13-22.86,35.12-24.71v5.72c-15.29,2.18-27.83,13.02-32.47,27.38-5.34-2.04-10.16-4.51-14.31-7.31,6.68-5.98,10.89-14.65,10.89-24.3s-4.21-18.31-10.89-24.28c5.94-3.99,13.24-7.31,21.38-9.69,3.65,11.39,13.41,20.06,25.41,22.16v5.75c-11.98-1.77-22.5-9.14-28.26-20.1-.21-.41-.59-.59-.86-.59-.08,0-.16.02-.24.04-2.66.98-5.22,2.09-7.61,3.28-.14.07-.34.2-.42.53-.05.18-.08.53.19.92Z"/><path class="cls-1" d="M488.15,62.01c0-14.89,12.11-27,27-27s27,12.11,27,27-12.11,26.99-27,26.99-27-12.11-27-26.99Z"/><path class="cls-1" d="M292.7,15.09c23.95,0,43.76,18.07,46.51,41.29l-8.59-.04c-2.74-18.47-18.7-32.68-37.92-32.68-21.14,0-38.34,17.19-38.34,38.33,0,19.21,14.21,35.17,32.67,37.91v17.94c-6.84,1.21-12.96,4.55-17.62,9.32l-7.14-4.89c4.47-4.92,10.08-8.68,16.26-10.97v-4.73c-8.14-2.59-15.48-7.39-21.17-13.93-7.42-8.52-11.5-19.43-11.5-30.71,0-25.83,21.01-46.84,46.84-46.84Z"/><path class="cls-1" d="M345.18,218.14c-4.16,2.81-8.99,5.28-14.34,7.33-4.65-14.37-17.2-25.23-32.5-27.41v-5.72c14.99,1.85,28.14,10.97,35.15,24.74.22.44.62.6.91.6.13,0,.25-.03.38-.09.18-.09.36-.18.54-.27.09-.04.37-.18.46-.56.05-.18.08-.53-.19-.91-4.56-6.47-6.97-14.08-6.97-22s2.41-15.52,6.97-21.99c.27-.38.24-.74.19-.92-.08-.32-.28-.46-.43-.53-2.4-1.2-4.98-2.3-7.66-3.29-.08-.03-.15-.04-.23-.04-.27,0-.64.18-.86.59-5.76,10.97-16.28,18.34-28.26,20.11v-5.74c12-2.1,21.76-10.79,25.41-22.18,8.15,2.38,15.48,5.71,21.43,9.7-6.68,5.98-10.89,14.65-10.89,24.29s4.21,18.32,10.89,24.29Z"/><path class="cls-1" d="M229.69,163.23c-3.49-1.28-7.25-1.98-11.18-1.98-17.97,0-32.6,14.63-32.6,32.6s14.63,32.6,32.6,32.6c3.92,0,7.69-.7,11.17-1.97,1.9,1.51,3.95,2.95,6.12,4.31-2.37,46.82-42.3,71.59-81.44,71.89h-.76c-1.18,0-2.36-.02-3.52-.07v-8.57c1.16.05,2.34.07,3.52.07h.7c32.09-.24,67.45-18.55,72.5-58.06-2.72.56-5.49.84-8.29.84-22.66,0-41.1-18.44-41.1-41.1,0-2.44.21-4.82.63-7.14-1.19.49-2.39.96-3.6,1.4-.87.32-1.74.62-2.62.91-.44.14-.88.29-1.32.42-2.61.82-5.25,1.51-7.91,2.07-.37.08-.75.16-1.13.23-.13.03-.27.06-.4.08-.39.08-.79.15-1.19.22-.27.05-.55.1-.82.14-.58.1-1.17.2-1.76.29h-.03c-1.19.18-2.38.33-3.57.45-.54.06-1.07.11-1.6.16-.67.06-1.34.11-2.01.15v-8.51c11.08-.8,21.9-3.93,31.64-9.18,6.74-13.5,20.71-22.79,36.79-22.79,3.23,0,6.41.37,9.51,1.11,6.98-4.9,15.14-8.89,24.37-11.91.71-3.55,1.89-7.01,3.5-10.25l7.12,4.87c-1.68,3.69-2.69,7.74-2.87,12-12.02,3.28-22.42,8.31-30.45,14.72Z"/><path class="cls-1" d="M239.77,193.85c0,11.72-9.54,21.26-21.26,21.26s-21.26-9.54-21.26-21.26,9.54-21.26,21.26-21.26,21.26,9.54,21.26,21.26Z"/><path class="cls-1" d="M116.74,179.87c7.07,2.65,14.44,4.26,22,4.79v8.51c-.43-.02-.85-.05-1.28-.09-.85-.06-1.7-.14-2.55-.23-.42-.05-.85-.1-1.27-.15-.03,0-.06,0-.1-.01-.82-.1-1.65-.22-2.47-.34-.76-.12-1.51-.24-2.27-.38-.13-.02-.27-.04-.4-.07-.79-.14-1.59-.3-2.37-.47-.73-.16-1.47-.32-2.19-.5,0,0-.03,0-.05-.01-.39-.09-.78-.19-1.17-.3-.64-.16-1.27-.33-1.9-.51-.6-.16-1.2-.34-1.79-.52-.11-.03-.22-.07-.33-.1.14,1.43.2,2.86.2,4.3,0,11.7-4.23,23-11.9,31.84-5.73,6.59-13.08,11.49-21.22,14.24,5.2,26.94,25.26,45.98,53.06,50.95v8.7c-34.92-5.58-59.35-30.91-62.54-66.01,19.27-2.91,34.1-19.58,34.1-39.66,0-10-3.69-19.16-9.77-26.19l10.71-12.26c9.49,6.39,20.9,10.12,33.17,10.12,32.81,0,59.51-26.69,59.51-59.51,0-16.22-6.54-30.96-17.11-41.71l5.52-6.57c12.4,12.33,20.09,29.39,20.09,48.22,0,37.5-30.51,68.02-68.01,68.02-11.03,0-21.76-2.65-31.42-7.71l-1.58,1.81c2.3,3.68,4.1,7.66,5.33,11.8Z"/><path class="cls-1" d="M124.16,140.61c5.95,3.5,12.87,5.51,20.25,5.51,22.12,0,40.11-17.99,40.11-40.11s-17.99-40.11-40.11-40.11-40.11,18-40.11,40.11c0,10.65,4.19,20.34,10.98,27.53l-5.32,6.09c-8.48-8.68-13.72-20.55-13.72-33.62,0-26.56,21.61-48.17,48.17-48.17s48.17,21.61,48.17,48.17-21.61,48.17-48.17,48.17c-9.41,0-18.2-2.72-25.63-7.41l5.38-6.16Z"/><path class="cls-1" d="M115.64,106.01c0-15.86,12.91-28.77,28.77-28.77s28.77,12.91,28.77,28.77-12.91,28.77-28.77,28.77-28.77-12.91-28.77-28.77Z"/><path class="cls-1" d="M240.22,169.56c5.95-4,13.28-7.32,21.43-9.7,3.65,11.37,13.38,20.05,25.35,22.16v5.75c-11.96-1.79-22.45-9.15-28.2-20.11-.22-.4-.59-.58-.86-.58l-7.89,3.33c-.15.07-.35.2-.43.53-.05.18-.08.54.19.92,4.56,6.47,6.97,14.07,6.97,21.99s-2.41,15.53-6.97,21.99c-.27.39-.23.74-.19.92.1.38.37.51.46.56l.5.25c.13.06.25.09.38.09.29,0,.68-.16.9-.6,7-13.75,20.15-22.87,35.14-24.72v5.72c-15.3,2.18-27.84,13.03-32.49,27.39-5.33-2.05-10.14-4.51-14.29-7.31,6.68-5.97,10.89-14.64,10.89-24.29s-4.21-18.31-10.89-24.29Z"/><path class="cls-1" d="M292.67,209c15.86,0,28.77,12.91,28.77,28.77s-12.91,28.77-28.77,28.77-28.77-12.91-28.77-28.77,12.91-28.77,28.77-28.77Z"/><path class="cls-1" d="M292.7,171.19c-11.72,0-21.26-9.54-21.26-21.26s9.54-21.26,21.26-21.26,21.26,9.54,21.26,21.26-9.54,21.26-21.26,21.26Z"/><path class="cls-1" d="M265.7,61.99c0-14.88,12.11-27,27-27s27,12.12,27,27-12.11,27-27,27-27-12.11-27-27Z"/><path class="cls-1" d="M35.01,227.25c-8.35-8.78-13.43-20.63-13.43-33.46,0-26.8,21.81-48.61,48.61-48.61,6.89,0,13.64,1.46,19.86,4.25l1.08-1.23c-9.55-11.99-14.73-26.72-14.73-42.25,0-17.21,6.43-32.94,17-44.93l-7.64-7.65c-12.56,13.97-20.2,32.43-20.2,52.64,0,7.97,1.19,15.84,3.52,23.38l-8.12,2.52c-2.59-8.36-3.9-17.07-3.9-25.9,0-48.17,39.18-87.35,87.35-87.35s87.35,39.18,87.35,87.35h-8.5c0-43.48-35.37-78.85-78.85-78.85-20.21,0-38.67,7.64-52.64,20.2l7.64,7.64c12-10.61,27.76-17.06,45-17.06,14.6,0,28.15,4.63,39.24,12.49l-5.52,6.57c-9.59-6.62-21.21-10.5-33.72-10.5-32.81,0-59.51,26.7-59.51,59.51,0,16.47,6.73,31.4,17.58,42.18l-10.5,12.02c-6.28-4.08-13.76-6.47-21.79-6.47-22.11,0-40.11,18-40.11,40.11,0,10.34,3.94,19.78,10.39,26.9l-5.46,6.5Z"/><path class="cls-1" d="M70.19,165.08c15.86,0,28.77,12.91,28.77,28.77s-12.91,28.77-28.77,28.77-28.77-12.91-28.77-28.77,12.91-28.77,28.77-28.77Z"/><circle class="cls-1" cx="50.65" cy="326.61" r="4.25"/><circle class="cls-1" cx="50.65" cy="298.61" r="4.25"/><path class="cls-1" d="M426.32,312.02c0,7.14-5.81,12.95-12.96,12.95-1.13,0-2.23-.16-3.28-.43l-4.57,6.82-7.07-4.74,4.58-6.83c-1.63-2.16-2.61-4.85-2.61-7.77,0-1.03.13-2.02.36-2.98l-12.66-7.77c-20.91,31.39-56.46,51.11-95.44,51.11-11.53,0-22.91-1.7-33.82-5.07-9.19-2.83-18.01-6.83-26.21-11.89-7.65-4.71-14.75-10.33-21.11-16.7-2.99-3-5.83-6.18-8.48-9.5-14.59,7.21-31.2,11.11-48.57,11.24h-.9c-26.26,0-49.47-8.26-67.12-23.9-16.19-14.35-26.29-33.6-29.43-55.98-4.79-1.35-9.26-3.41-13.31-6.07l5.47-6.51c4.66,2.88,9.96,4.83,15.62,5.59,3.7,46.53,39.47,78.43,88.77,78.43.29,0,.58,0,.86-.01,22.62-.17,43.8-7.22,60.26-19.96l5.81,6.2c-3.14,2.47-6.44,4.75-9.88,6.82,2.18,2.66,4.5,5.22,6.92,7.65,5.89,5.9,12.46,11.1,19.54,15.46,7.6,4.68,15.76,8.38,24.26,11,10.11,3.12,20.64,4.7,31.32,4.7,45.35,0,85.7-28.8,100.4-71.66l8.05,2.76c-2.3,6.68-5.19,13.04-8.57,19.04l12.79,7.85c2.21-1.75,4.99-2.8,8.02-2.8,1.14,0,2.23.16,3.28.43l4.58-6.82,7.06,4.74-4.58,6.82c1.64,2.17,2.62,4.86,2.62,7.78Z"/><path class="cls-1" d="M509.48,285.98c-22.49-2.66-40.32-20.72-42.63-43.31-6-2.53-11.46-5.51-16.32-8.9-3.1.73-6.28,1.11-9.51,1.11-16.31,0-30.43-9.55-37.06-23.35-4.46,9.28-12.3,16.63-21.91,20.45.13,1.92.19,3.85.19,5.77,0,39.85-26.74,75.28-65.02,86.17l-2.33-8.18c34.65-9.85,58.85-41.92,58.85-77.99,0-1.14-.02-2.29-.08-3.43-2.2.38-4.46.57-6.77.57-3.23,0-6.41-.37-9.51-1.11-4.87,3.41-10.34,6.39-16.35,8.92-.61,5.92-2.28,11.53-4.83,16.64l17.74,10.35-2.24,3.69c-10.83,17.92-28.89,29.82-49.54,32.67-1.25.17-2.52.31-3.79.41v-8.54c.26-.02.53-.05.79-.08.62-.06,1.23-.14,1.84-.22,16.67-2.29,31.41-11.33,41.06-25.02l-10.31-6.01c-8.86,11.96-23.08,19.73-39.08,19.73-18.95,0-35.41-10.9-43.42-26.77-1.73,4.42-3.79,8.69-6.17,12.77.73,1.04,1.48,2.05,2.27,3.04.4.51.82,1.01,1.24,1.51.44.52.89,1.03,1.35,1.53.45.5.92,1,1.39,1.48.35.36.71.72,1.07,1.07.3.3.61.59.92.88.25.24.51.48.77.71.45.41.9.81,1.35,1.19.24.2.47.4.71.6.3.25.6.49.9.72.29.24.58.47.88.69.12.1.24.19.36.27.35.27.7.53,1.05.78.31.23.63.46.96.68.17.12.34.24.52.36.31.21.63.42.95.62.31.21.62.41.93.6.69.44,1.38.85,2.09,1.24.4.24.82.47,1.23.69.56.31,1.12.6,1.68.88.6.3,1.21.59,1.82.86.37.18.74.35,1.12.51.16.07.33.14.5.21.38.17.77.33,1.16.48,1.23.49,2.47.94,3.72,1.34.37.13.74.24,1.11.36.4.12.8.23,1.2.34.37.11.74.21,1.11.3,1.38.36,2.77.67,4.18.93.88.16,1.75.3,2.63.42.92.13,1.85.24,2.78.32v8.54c-8.78-.7-17.2-3.05-25.13-7-9.3-4.65-17.42-11.34-23.76-19.54-2.76,3.82-5.81,7.42-9.15,10.78l-5.79-6.17c13.26-13.41,21.4-30.79,23.51-50.04,1.9.83,3.86,1.61,5.88,2.33,0,.31-.03.62-.03.94,0,22.12,18,40.11,40.11,40.11s40.11-17.99,40.11-40.11c0-.31-.02-.61-.03-.92,8.87-3.17,16.69-7.38,22.97-12.37,3.48,1.27,7.25,1.97,11.17,1.97,17.98,0,32.6-14.62,32.6-32.6s-14.62-32.6-32.6-32.6c-3.93,0-7.69.7-11.18,1.98-8.03-6.41-18.43-11.44-30.45-14.72-.66-15.41-12.07-28.06-26.89-30.67v-17.94c16.6-2.46,29.77-15.62,32.24-32.22l8.56.03c-1.13,9.19-4.99,17.88-11.13,24.93-5.69,6.54-13.03,11.34-21.17,13.93v4.73c6.35,2.35,12.1,6.26,16.63,11.38,4.82,5.46,8.1,12.13,9.51,19.21,9.23,3.02,17.39,7.01,24.37,11.91,3.1-.74,6.28-1.11,9.51-1.11,16.3,0,30.42,9.54,37.06,23.34,6.64-13.81,20.76-23.36,37.07-23.36,3.23,0,6.41.38,9.51,1.11,6.97-4.89,15.11-8.87,24.31-11.88,1.19-5.96,3.69-11.5,7.19-16.27l6.17,5.98c-3.31,4.86-5.34,10.65-5.61,16.9-12,3.28-22.37,8.3-30.39,14.7-3.49-1.28-7.25-1.97-11.18-1.97-17.98,0-32.6,14.62-32.6,32.59s14.62,32.6,32.6,32.6c3.92,0,7.69-.69,11.17-1.97,6.27,4.99,14.08,9.2,22.94,12.36-.01.31-.03.62-.03.93,0,20.17,14.96,36.91,34.38,39.7v8.53Z"/><path class="cls-1" d="M345.63,193.85c0-11.72,9.54-21.26,21.26-21.26s21.26,9.54,21.26,21.26-9.54,21.26-21.26,21.26-21.26-9.54-21.26-21.26Z"/><path class="cls-1" d="M462.28,193.83c0,11.73-9.54,21.27-21.26,21.27s-21.26-9.54-21.26-21.27,9.54-21.25,21.26-21.25,21.26,9.53,21.26,21.25Z"/><path class="cls-1" d="M486.44,237.75c0-15.86,12.91-28.76,28.77-28.76s28.77,12.9,28.77,28.76-12.91,28.77-28.77,28.77-28.77-12.9-28.77-28.77Z"/><path class="cls-1" d="M592.61,222.21c-6.92,8.35-16.82,15.33-29.04,20.46-2.31,22.62-20.2,40.71-42.75,43.32v-8.52c19.47-2.74,34.5-19.5,34.5-39.72,0-.31-.02-.62-.03-.93,14.77-5.27,26.26-13.25,33.02-22.92.33.02.66.05,1,.05,11.08,0,20.1-9.02,20.1-20.1s-9.02-20.1-20.1-20.1c-.33,0-.66.03-.99.05-7.91-11.33-22.33-20.34-40.61-25.33-.67-15.37-12.05-28.01-26.84-30.64l-.04-17.91c17.06-2.54,30.5-16.37,32.42-33.63h8.54c-.9,9.7-4.83,18.94-11.3,26.37-5.68,6.53-13.01,11.33-21.14,13.92v4.72c6.35,2.35,12.09,6.26,16.61,11.38,4.82,5.46,8.09,12.11,9.5,19.18,15.82,5.19,28.75,13.37,37.17,23.52,14.21,1.65,25.28,13.76,25.28,28.41s-11.07,26.77-25.3,28.42Z"/><path class="cls-1" d="M579.39,193.85c0-5.47,4.45-9.92,9.92-9.92s9.92,4.45,9.92,9.92-4.45,9.92-9.92,9.92-9.92-4.45-9.92-9.92Z"/><g id="topgrass_bolt_holes"><circle class="cls-1" cx="611.73" cy="17.86" r="2.83"/><circle class="cls-1" cx="611.73" cy="353.77" r="2.83"/><circle class="cls-1" cx="17.87" cy="354.4" r="2.83"/><circle class="cls-1" cx="17.87" cy="17.23" r="2.83"/></g></g></svg>