<?xml version="1.0" encoding="UTF-8"?><svg id="Laag_2" xmlns="http://www.w3.org/2000/svg" viewBox="0 0 612.28 354.33"><defs><style>.cls-1{fill:none;stroke:#e30613;stroke-miterlimit:10;stroke-width:.28px;}.cls-2{fill:#e30613;}</style></defs><g id="topplate_bottom_layer_3mm"><path class="cls-1" d="M33.56,297.92h16.87c.82,0,1.49.57,1.49,1.28v8.79c0,.7-.67,1.28-1.49,1.28h-16.87c-.82,0-1.49-.57-1.49-1.28v-8.79c0-.7.67-1.28,1.49-1.28Z"/><path class="cls-1" d="M249.05,158.47c.08-.03.16-.04.23-.04"/><circle class="cls-1" cx="580.66" cy="185.2" r="7.09"/><circle class="cls-1" cx="580.66" cy="97.36" r="11.06"/><circle class="cls-1" cx="506.5" cy="141.28" r="9.92"/><circle class="cls-1" cx="506.56" cy="53.34" r="9.92"/><circle class="cls-1" cx="506.5" cy="229.12" r="9.92"/><circle class="cls-1" cx="432.34" cy="185.18" r="9.92"/><circle class="cls-1" cx="358.24" cy="185.2" r="9.92"/><circle class="cls-1" cx="284.02" cy="53.44" r="9.92"/><circle class="cls-1" cx="284.02" cy="141.26" r="9.92"/><circle class="cls-1" cx="284.02" cy="229.1" r="9.92"/><circle class="cls-1" cx="209.86" cy="185.18" r="9.92"/><circle class="cls-1" cx="135.76" cy="97.36" r="9.92"/><circle class="cls-1" cx="61.54" cy="185.2" r="9.92"/><ellipse class="cls-1" cx="580.66" cy="53.42" rx="11.06" ry="11.17"/><path class="cls-2" d="M42,285.99c2.19,0,3.97,1.78,3.97,3.97s-1.78,3.97-3.97,3.97-3.97-1.78-3.97-3.97,1.78-3.97,3.97-3.97M42,285.71c-2.35,0-4.25,1.9-4.25,4.25s1.9,4.25,4.25,4.25,4.25-1.9,4.25-4.25-1.9-4.25-4.25-4.25h0Z"/><path class="cls-2" d="M42,313.99c2.19,0,3.97,1.78,3.97,3.97s-1.78,3.97-3.97,3.97-3.97-1.78-3.97-3.97,1.78-3.97,3.97-3.97M42,313.71c-2.35,0-4.25,1.9-4.25,4.25s1.9,4.25,4.25,4.25,4.25-1.9,4.25-4.25-1.9-4.25-4.25-4.25h0Z"/><path class="cls-2" d="M612,.28v353.76H.28v-34.58s10.11,0,10.11,0h.28v-31.83H.28V.28h611.72M612.28,0H0v287.92s10.39,0,10.39,0v31.27H0v35.15h612.28V0h0Z"/><polygon class="cls-1" points="605.44 5.09 600.7 5.09 598.33 9.2 600.7 13.32 605.44 13.32 607.82 9.2 605.44 5.09"/><polygon class="cls-1" points="605.44 341.01 600.7 341.01 598.33 345.12 600.7 349.23 605.44 349.23 607.82 345.12 605.44 341.01"/><polygon class="cls-1" points="11.59 341.64 6.84 341.64 4.47 345.75 6.84 349.86 11.59 349.86 13.96 345.75 11.59 341.64"/><polygon class="cls-1" points="11.59 4.47 6.84 4.47 4.47 8.58 6.84 12.69 11.59 12.69 13.96 8.58 11.59 4.47"/></g></svg>