<svg width="581.72mm" height="131.24mm" viewBox="0 0 581.72 131.24" xmlns="http://www.w3.org/2000/svg" version="1.1" preserveAspectRatio="xMidYMid meet"><g id="svgGroup" stroke-linecap="round" fill-rule="evenodd" font-size="9pt" stroke="#000" stroke-width="0.25mm" fill="none" style="stroke:#000;stroke-width:0.25mm;fill:none"><path d="M 14.91 128.24 L 24.81 128.24 L 24.81 131.24 L 35.19 131.24 L 35.19 128.24 L 45.09 128.24 L 45.09 131.24 L 55.47 131.24 L 55.47 128.24 L 65.37 128.24 L 65.37 131.24 L 75.75 131.24 L 75.75 128.24 L 85.65 128.24 L 85.65 131.24 L 96.03 131.24 L 96.03 128.24 L 105.93 128.24 L 105.93 131.24 L 116.31 131.24 L 116.31 128.24 L 126.21 128.24 L 126.21 131.24 L 136.59 131.24 L 136.59 128.24 L 146.49 128.24 L 146.49 131.24 L 156.87 131.24 L 156.87 128.24 L 166.77 128.24 L 166.77 131.24 L 177.15 131.24 L 177.15 128.24 L 187.05 128.24 L 187.05 131.24 L 197.43 131.24 L 197.43 128.24 L 207.33 128.24 L 207.33 131.24 L 222.24 131.24 L 222.24 124.17 L 219.24 124.17 L 219.24 114.27 L 222.24 114.27 L 222.24 107.2 L 0 107.2 L 0 114.27 L 3 114.27 L 3 124.17 L 0 124.17 L 0 131.24 L 14.91 131.24 L 14.91 128.24 Z" id="front_outsideCutPath" stroke="#FF0000" stroke-width="0.1" style="stroke:#FF0000;stroke-width:0.1" vector-effect="non-scaling-stroke"/><path d="M 114.624 121.036 L 114.234 121.036 L 114.234 119.371 Q 114.234 119.171 114.176 119.035 A 0.464 0.464 0 0 0 114.091 118.902 Q 113.975 118.776 113.753 118.753 A 1.033 1.033 0 0 0 113.643 118.747 Q 113.377 118.747 113.204 118.842 A 0.549 0.549 0 0 0 113.051 118.965 A 0.637 0.637 0 0 0 112.94 119.159 Q 112.874 119.336 112.865 119.601 A 2.496 2.496 0 0 0 112.863 119.686 L 112.863 121.036 L 112.473 121.036 L 112.473 118.463 L 112.79 118.463 L 112.854 118.815 L 112.873 118.815 A 0.789 0.789 0 0 1 113.182 118.534 A 0.949 0.949 0 0 1 113.208 118.52 A 1.055 1.055 0 0 1 113.584 118.42 A 1.276 1.276 0 0 1 113.69 118.416 Q 114.154 118.416 114.389 118.64 Q 114.624 118.864 114.624 119.357 L 114.624 121.036 Z M 107.137 118.463 L 107.137 118.766 L 106.482 118.766 L 106.482 121.036 L 106.092 121.036 L 106.092 118.766 L 105.632 118.766 L 105.632 118.59 L 106.092 118.449 L 106.092 118.306 A 1.579 1.579 0 0 1 106.129 117.948 Q 106.243 117.459 106.71 117.375 A 1.185 1.185 0 0 1 106.921 117.357 A 1.255 1.255 0 0 1 107.099 117.371 Q 107.185 117.383 107.281 117.407 A 2.523 2.523 0 0 1 107.4 117.439 L 107.299 117.751 A 1.892 1.892 0 0 0 107.152 117.71 Q 107.078 117.693 107.012 117.685 A 0.838 0.838 0 0 0 106.914 117.679 A 0.526 0.526 0 0 0 106.787 117.693 A 0.338 0.338 0 0 0 106.588 117.825 Q 106.492 117.959 106.483 118.238 A 1.84 1.84 0 0 0 106.482 118.296 L 106.482 118.463 L 107.137 118.463 Z M 116.608 120.714 L 116.608 121.012 A 0.383 0.383 0 0 1 116.562 121.03 Q 116.514 121.047 116.444 121.059 A 1.457 1.457 0 0 1 116.421 121.063 Q 116.298 121.083 116.199 121.083 A 1.018 1.018 0 0 1 115.899 121.042 Q 115.453 120.905 115.453 120.296 L 115.453 118.766 L 115.084 118.766 L 115.084 118.578 L 115.453 118.416 L 115.617 117.867 L 115.842 117.867 L 115.842 118.463 L 116.589 118.463 L 116.589 118.766 L 115.842 118.766 L 115.842 120.28 A 0.785 0.785 0 0 0 115.854 120.418 Q 115.867 120.493 115.897 120.553 A 0.378 0.378 0 0 0 115.953 120.637 A 0.362 0.362 0 0 0 116.175 120.755 A 0.521 0.521 0 0 0 116.255 120.761 A 1.28 1.28 0 0 0 116.443 120.748 A 1.18 1.18 0 0 0 116.455 120.746 Q 116.547 120.731 116.602 120.716 A 0.586 0.586 0 0 0 116.608 120.714 Z M 109.088 118.444 L 109.034 118.806 Q 108.901 118.776 108.794 118.771 A 0.914 0.914 0 0 0 108.752 118.77 A 0.675 0.675 0 0 0 108.254 118.986 A 0.924 0.924 0 0 0 108.218 119.024 A 0.89 0.89 0 0 0 108.004 119.524 A 1.183 1.183 0 0 0 107.996 119.655 L 107.996 121.036 L 107.607 121.036 L 107.607 118.463 L 107.928 118.463 L 107.973 118.939 L 107.992 118.939 A 1.316 1.316 0 0 1 108.139 118.729 A 1.005 1.005 0 0 1 108.337 118.552 Q 108.539 118.416 108.781 118.416 A 1.789 1.789 0 0 1 108.941 118.423 A 1.306 1.306 0 0 1 109.088 118.444 Z M 111.473 120.729 A 1.087 1.087 0 0 0 111.603 120.552 Q 111.79 120.231 111.79 119.747 Q 111.79 119.134 111.472 118.775 Q 111.154 118.416 110.614 118.416 A 1.514 1.514 0 0 0 110.342 118.439 A 1.031 1.031 0 0 0 109.741 118.767 A 1.077 1.077 0 0 0 109.609 118.95 Q 109.507 119.128 109.462 119.356 A 2.023 2.023 0 0 0 109.426 119.747 A 1.95 1.95 0 0 0 109.451 120.063 A 1.442 1.442 0 0 0 109.572 120.456 Q 109.717 120.759 109.985 120.921 A 1.085 1.085 0 0 0 110.234 121.032 A 1.251 1.251 0 0 0 110.598 121.083 A 1.513 1.513 0 0 0 110.862 121.061 A 1.039 1.039 0 0 0 111.473 120.729 Z M 109.83 119.747 A 1.973 1.973 0 0 0 109.849 120.029 Q 109.891 120.32 110.027 120.498 A 0.639 0.639 0 0 0 110.443 120.743 A 0.968 0.968 0 0 0 110.607 120.756 A 0.905 0.905 0 0 0 110.846 120.727 A 0.63 0.63 0 0 0 111.188 120.499 Q 111.386 120.242 111.386 119.747 A 1.944 1.944 0 0 0 111.368 119.47 Q 111.326 119.179 111.188 119.002 Q 110.99 118.747 110.602 118.747 Q 110.22 118.747 110.025 118.998 Q 109.885 119.179 109.845 119.487 A 2.059 2.059 0 0 0 109.83 119.747 Z" id="front_labelLayer" stroke="#777777" fill="#777777" style="stroke:#777777;fill:#777777" vector-effect="non-scaling-stroke"/><path d="M 235.21 128.24 L 245.11 128.24 L 245.11 131.24 L 255.49 131.24 L 255.49 128.24 L 265.39 128.24 L 265.39 131.24 L 275.77 131.24 L 275.77 128.24 L 285.67 128.24 L 285.67 131.24 L 296.05 131.24 L 296.05 128.24 L 305.95 128.24 L 305.95 131.24 L 316.33 131.24 L 316.33 128.24 L 326.23 128.24 L 326.23 131.24 L 336.61 131.24 L 336.61 128.24 L 346.51 128.24 L 346.51 131.24 L 353.48 131.24 L 353.48 124.41 L 356.48 124.41 L 356.48 114.03 L 353.48 114.03 L 353.48 107.2 L 228.24 107.2 L 228.24 114.03 L 225.24 114.03 L 225.24 124.41 L 228.24 124.41 L 228.24 131.24 L 235.21 131.24 L 235.21 128.24 Z" id="left_outsideCutPath" stroke="#FF0000" stroke-width="0.1" style="stroke:#FF0000;stroke-width:0.1" vector-effect="non-scaling-stroke"/><path d="M 292.57 118.463 L 292.57 118.766 L 291.915 118.766 L 291.915 121.036 L 291.526 121.036 L 291.526 118.766 L 291.065 118.766 L 291.065 118.59 L 291.526 118.449 L 291.526 118.306 A 1.579 1.579 0 0 1 291.562 117.948 Q 291.676 117.459 292.143 117.375 A 1.185 1.185 0 0 1 292.354 117.357 A 1.255 1.255 0 0 1 292.532 117.371 Q 292.618 117.383 292.714 117.407 A 2.523 2.523 0 0 1 292.833 117.439 L 292.732 117.751 A 1.892 1.892 0 0 0 292.585 117.71 Q 292.511 117.693 292.445 117.685 A 0.838 0.838 0 0 0 292.347 117.679 A 0.526 0.526 0 0 0 292.221 117.693 A 0.338 0.338 0 0 0 292.021 117.825 Q 291.925 117.959 291.916 118.238 A 1.84 1.84 0 0 0 291.915 118.296 L 291.915 118.463 L 292.57 118.463 Z M 290.746 119.573 L 290.746 119.82 L 288.974 119.82 A 1.564 1.564 0 0 0 289.001 120.082 Q 289.053 120.346 289.203 120.508 A 0.708 0.708 0 0 0 289.574 120.717 A 1.073 1.073 0 0 0 289.814 120.742 A 2.058 2.058 0 0 0 290.585 120.59 A 2.359 2.359 0 0 0 290.636 120.569 L 290.636 120.916 A 2.34 2.34 0 0 1 290.423 120.997 A 1.789 1.789 0 0 1 290.245 121.044 Q 290.102 121.074 289.912 121.081 A 3.175 3.175 0 0 1 289.8 121.083 A 1.514 1.514 0 0 1 289.421 121.038 A 1.072 1.072 0 0 1 288.9 120.735 A 1.147 1.147 0 0 1 288.625 120.232 Q 288.578 120.053 288.571 119.841 A 2.226 2.226 0 0 1 288.57 119.77 A 2.046 2.046 0 0 1 288.608 119.365 Q 288.658 119.118 288.773 118.926 A 1.154 1.154 0 0 1 288.876 118.782 A 0.999 0.999 0 0 1 289.604 118.419 A 1.378 1.378 0 0 1 289.699 118.416 Q 290.183 118.416 290.464 118.734 Q 290.746 119.052 290.746 119.573 Z M 294.223 120.714 L 294.223 121.012 A 0.383 0.383 0 0 1 294.178 121.03 Q 294.129 121.047 294.06 121.059 A 1.457 1.457 0 0 1 294.036 121.063 Q 293.913 121.083 293.815 121.083 A 1.018 1.018 0 0 1 293.515 121.042 Q 293.068 120.905 293.068 120.296 L 293.068 118.766 L 292.699 118.766 L 292.699 118.578 L 293.068 118.416 L 293.232 117.867 L 293.458 117.867 L 293.458 118.463 L 294.204 118.463 L 294.204 118.766 L 293.458 118.766 L 293.458 120.28 A 0.785 0.785 0 0 0 293.469 120.418 Q 293.483 120.493 293.512 120.553 A 0.378 0.378 0 0 0 293.568 120.637 A 0.362 0.362 0 0 0 293.791 120.755 A 0.521 0.521 0 0 0 293.871 120.761 A 1.28 1.28 0 0 0 294.058 120.748 A 1.18 1.18 0 0 0 294.07 120.746 Q 294.162 120.731 294.218 120.716 A 0.586 0.586 0 0 0 294.223 120.714 Z M 287.887 117.383 L 287.887 121.036 L 287.497 121.036 L 287.497 117.383 L 287.887 117.383 Z M 288.983 119.503 L 290.328 119.503 A 1.328 1.328 0 0 0 290.312 119.289 Q 290.294 119.175 290.253 119.083 A 0.603 0.603 0 0 0 290.164 118.938 A 0.534 0.534 0 0 0 289.842 118.755 A 0.801 0.801 0 0 0 289.694 118.742 A 0.768 0.768 0 0 0 289.472 118.773 A 0.594 0.594 0 0 0 289.2 118.944 Q 289.016 119.146 288.983 119.503 Z" id="left_labelLayer" stroke="#777777" fill="#777777" style="stroke:#777777;fill:#777777" vector-effect="non-scaling-stroke"/><path d="M 14.91 101.2 L 24.81 101.2 L 24.81 104.2 L 35.19 104.2 L 35.19 101.2 L 45.09 101.2 L 45.09 104.2 L 55.47 104.2 L 55.47 101.2 L 65.37 101.2 L 65.37 104.2 L 75.75 104.2 L 75.75 101.2 L 85.65 101.2 L 85.65 104.2 L 96.03 104.2 L 96.03 101.2 L 105.93 101.2 L 105.93 104.2 L 116.31 104.2 L 116.31 101.2 L 126.21 101.2 L 126.21 104.2 L 136.59 104.2 L 136.59 101.2 L 146.49 101.2 L 146.49 104.2 L 156.87 104.2 L 156.87 101.2 L 166.77 101.2 L 166.77 104.2 L 177.15 104.2 L 177.15 101.2 L 187.05 101.2 L 187.05 104.2 L 197.43 104.2 L 197.43 101.2 L 207.33 101.2 L 207.33 104.2 L 222.24 104.2 L 222.24 97.13 L 219.24 97.13 L 219.24 87.23 L 222.24 87.23 L 222.24 80.16 L 0 80.16 L 0 87.23 L 3 87.23 L 3 97.13 L 0 97.13 L 0 104.2 L 14.91 104.2 L 14.91 101.2 Z" id="back_outsideCutPath" stroke="#FF0000" stroke-width="0.1" style="stroke:#FF0000;stroke-width:0.1" vector-effect="non-scaling-stroke"/><path d="M 114.411 92.666 L 114.43 92.666 Q 114.531 92.523 114.738 92.29 L 115.569 91.41 L 116.031 91.41 L 114.989 92.506 L 116.104 93.983 L 115.632 93.983 L 114.724 92.767 L 114.43 93.02 L 114.43 93.983 L 114.045 93.983 L 114.045 90.33 L 114.43 90.33 L 114.43 92.267 Q 114.43 92.396 114.411 92.666 Z M 106.526 93.652 L 106.497 93.652 L 106.415 93.983 L 106.136 93.983 L 106.136 90.33 L 106.526 90.33 L 106.526 91.217 A 8.125 8.125 0 0 1 106.521 91.492 Q 106.517 91.63 106.507 91.753 L 106.526 91.753 Q 106.798 91.368 107.333 91.368 A 1.191 1.191 0 0 1 107.668 91.412 A 0.892 0.892 0 0 1 108.121 91.714 Q 108.346 91.991 108.39 92.453 A 2.501 2.501 0 0 1 108.401 92.694 Q 108.401 93.141 108.261 93.448 A 1.095 1.095 0 0 1 108.119 93.679 A 0.923 0.923 0 0 1 107.463 94.024 A 1.322 1.322 0 0 1 107.333 94.03 A 1.182 1.182 0 0 1 107.036 93.994 A 1.028 1.028 0 0 1 106.874 93.937 Q 106.666 93.844 106.526 93.652 Z M 110.953 93.983 L 110.665 93.983 L 110.587 93.617 L 110.568 93.617 A 1.616 1.616 0 0 1 110.438 93.763 Q 110.367 93.832 110.297 93.88 A 0.718 0.718 0 0 1 110.184 93.944 Q 110.027 94.015 109.804 94.027 A 1.754 1.754 0 0 1 109.707 94.03 A 1.196 1.196 0 0 1 109.463 94.007 Q 109.315 93.976 109.2 93.904 A 0.671 0.671 0 0 1 109.107 93.833 A 0.641 0.641 0 0 1 108.914 93.495 A 0.981 0.981 0 0 1 108.89 93.272 A 0.674 0.674 0 0 1 109.273 92.635 Q 109.581 92.471 110.136 92.455 L 110.573 92.441 L 110.573 92.281 A 1.119 1.119 0 0 0 110.562 92.119 Q 110.55 92.036 110.524 91.97 A 0.435 0.435 0 0 0 110.443 91.834 A 0.396 0.396 0 0 0 110.281 91.728 Q 110.216 91.704 110.135 91.695 A 0.963 0.963 0 0 0 110.026 91.689 Q 109.767 91.689 109.454 91.817 A 2.61 2.61 0 0 0 109.298 91.887 L 109.178 91.588 A 1.797 1.797 0 0 1 109.525 91.446 A 2.046 2.046 0 0 1 109.595 91.426 Q 109.822 91.368 110.049 91.368 A 1.646 1.646 0 0 1 110.3 91.385 Q 110.429 91.405 110.532 91.448 A 0.663 0.663 0 0 1 110.731 91.572 Q 110.953 91.776 110.953 92.227 L 110.953 93.983 Z M 113.472 91.497 L 113.353 91.828 Q 113.224 91.776 113.071 91.742 A 1.61 1.61 0 0 0 112.948 91.719 Q 112.889 91.711 112.836 91.709 A 0.864 0.864 0 0 0 112.801 91.708 Q 112.104 91.708 112.027 92.497 A 2.153 2.153 0 0 0 112.017 92.708 Q 112.017 93.182 112.208 93.436 Q 112.399 93.69 112.775 93.69 A 1.631 1.631 0 0 0 113.225 93.624 A 2.014 2.014 0 0 0 113.435 93.551 L 113.435 93.896 Q 113.177 94.03 112.784 94.03 A 1.457 1.457 0 0 1 112.43 93.989 A 0.988 0.988 0 0 1 111.919 93.686 A 1.127 1.127 0 0 1 111.685 93.255 Q 111.633 93.085 111.619 92.879 A 2.356 2.356 0 0 1 111.613 92.713 Q 111.613 92.245 111.776 91.932 A 1.074 1.074 0 0 1 111.924 91.715 A 1.009 1.009 0 0 1 112.477 91.397 A 1.53 1.53 0 0 1 112.81 91.363 Q 112.996 91.363 113.181 91.403 A 1.945 1.945 0 0 1 113.289 91.429 Q 113.4 91.46 113.472 91.497 Z M 107.277 91.694 A 1.095 1.095 0 0 0 107.065 91.713 Q 106.944 91.737 106.852 91.791 A 0.518 0.518 0 0 0 106.702 91.923 A 0.667 0.667 0 0 0 106.605 92.107 Q 106.54 92.289 106.528 92.567 A 3.002 3.002 0 0 0 106.526 92.694 A 2.577 2.577 0 0 0 106.538 92.96 Q 106.574 93.298 106.706 93.47 A 0.565 0.565 0 0 0 106.993 93.664 Q 107.089 93.694 107.206 93.701 A 1.253 1.253 0 0 0 107.286 93.704 A 0.777 0.777 0 0 0 107.507 93.674 A 0.56 0.56 0 0 0 107.822 93.442 A 0.895 0.895 0 0 0 107.932 93.202 Q 107.998 92.988 107.998 92.689 A 2.302 2.302 0 0 0 107.984 92.427 Q 107.948 92.118 107.822 91.941 A 0.568 0.568 0 0 0 107.46 91.712 A 0.901 0.901 0 0 0 107.277 91.694 Z M 110.564 92.95 L 110.564 92.718 L 110.174 92.734 Q 109.786 92.748 109.578 92.839 A 0.599 0.599 0 0 0 109.504 92.878 A 0.416 0.416 0 0 0 109.305 93.18 A 0.616 0.616 0 0 0 109.298 93.276 A 0.557 0.557 0 0 0 109.312 93.404 Q 109.335 93.502 109.397 93.57 A 0.347 0.347 0 0 0 109.426 93.598 A 0.424 0.424 0 0 0 109.585 93.682 Q 109.648 93.701 109.723 93.706 A 0.876 0.876 0 0 0 109.784 93.708 A 1.073 1.073 0 0 0 110.016 93.685 Q 110.177 93.649 110.296 93.559 A 0.651 0.651 0 0 0 110.356 93.509 Q 110.562 93.31 110.564 92.954 A 1.212 1.212 0 0 0 110.564 92.95 Z" id="back_labelLayer" stroke="#777777" fill="#777777" style="stroke:#777777;fill:#777777" vector-effect="non-scaling-stroke"/><path d="M 235.21 101.2 L 245.11 101.2 L 245.11 104.2 L 255.49 104.2 L 255.49 101.2 L 265.39 101.2 L 265.39 104.2 L 275.77 104.2 L 275.77 101.2 L 285.67 101.2 L 285.67 104.2 L 296.05 104.2 L 296.05 101.2 L 305.95 101.2 L 305.95 104.2 L 316.33 104.2 L 316.33 101.2 L 326.23 101.2 L 326.23 104.2 L 336.61 104.2 L 336.61 101.2 L 346.51 101.2 L 346.51 104.2 L 353.48 104.2 L 353.48 97.37 L 356.48 97.37 L 356.48 86.99 L 353.48 86.99 L 353.48 80.16 L 228.24 80.16 L 228.24 86.99 L 225.24 86.99 L 225.24 97.37 L 228.24 97.37 L 228.24 104.2 L 235.21 104.2 L 235.21 101.2 Z" id="right_outsideCutPath" stroke="#FF0000" stroke-width="0.1" style="stroke:#FF0000;stroke-width:0.1" vector-effect="non-scaling-stroke"/><path d="M 293.85 93.429 L 293.46 93.429 L 293.46 91.764 Q 293.46 91.564 293.402 91.428 A 0.464 0.464 0 0 0 293.317 91.295 Q 293.201 91.169 292.979 91.146 A 1.033 1.033 0 0 0 292.868 91.14 A 1.179 1.179 0 0 0 292.648 91.159 Q 292.526 91.182 292.432 91.234 A 0.546 0.546 0 0 0 292.276 91.361 A 0.648 0.648 0 0 0 292.166 91.556 Q 292.099 91.734 292.09 92 A 2.516 2.516 0 0 0 292.089 92.084 L 292.089 93.429 L 291.699 93.429 L 291.699 89.776 L 292.089 89.776 L 292.089 90.882 Q 292.089 91.081 292.07 91.213 L 292.094 91.213 A 0.779 0.779 0 0 1 292.366 90.95 A 0.951 0.951 0 0 1 292.421 90.92 Q 292.634 90.814 292.906 90.814 Q 293.216 90.814 293.425 90.911 A 0.702 0.702 0 0 1 293.614 91.038 Q 293.797 91.212 293.838 91.546 A 1.685 1.685 0 0 1 293.85 91.75 L 293.85 93.429 Z M 290.281 90.856 L 291.171 90.856 L 291.171 91.102 L 290.694 91.159 A 0.633 0.633 0 0 1 290.749 91.24 Q 290.783 91.299 290.812 91.374 A 0.75 0.75 0 0 1 290.856 91.553 A 0.963 0.963 0 0 1 290.864 91.673 Q 290.864 92.051 290.605 92.276 Q 290.373 92.479 289.984 92.499 A 1.693 1.693 0 0 1 289.896 92.502 A 1.252 1.252 0 0 1 289.751 92.494 A 1.058 1.058 0 0 1 289.68 92.483 Q 289.538 92.558 289.477 92.655 A 0.293 0.293 0 0 0 289.431 92.814 A 0.202 0.202 0 0 0 289.442 92.88 Q 289.46 92.934 289.513 92.967 A 0.216 0.216 0 0 0 289.518 92.97 A 0.273 0.273 0 0 0 289.579 92.995 Q 289.642 93.013 289.739 93.019 A 1.482 1.482 0 0 0 289.816 93.02 L 290.272 93.02 A 1.595 1.595 0 0 1 290.514 93.038 Q 290.641 93.057 290.743 93.099 A 0.704 0.704 0 0 1 290.914 93.197 A 0.57 0.57 0 0 1 291.126 93.56 A 0.856 0.856 0 0 1 291.138 93.708 A 0.844 0.844 0 0 1 291.09 94 Q 291.012 94.213 290.809 94.351 A 0.926 0.926 0 0 1 290.795 94.36 Q 290.556 94.516 290.165 94.563 A 3.089 3.089 0 0 1 289.795 94.584 Q 289.291 94.584 289.017 94.396 Q 288.744 94.208 288.744 93.866 A 0.596 0.596 0 0 1 288.894 93.459 A 0.68 0.68 0 0 1 289.128 93.289 A 0.965 0.965 0 0 1 289.316 93.227 A 0.404 0.404 0 0 1 289.159 93.1 A 0.481 0.481 0 0 1 289.151 93.089 A 0.361 0.361 0 0 1 289.085 92.893 A 0.448 0.448 0 0 1 289.084 92.87 Q 289.084 92.729 289.159 92.624 Q 289.216 92.544 289.322 92.468 A 1.224 1.224 0 0 1 289.396 92.419 A 0.683 0.683 0 0 1 289.099 92.182 A 0.847 0.847 0 0 1 289.071 92.14 A 0.806 0.806 0 0 1 288.947 91.752 A 0.983 0.983 0 0 1 288.945 91.689 A 1.126 1.126 0 0 1 288.975 91.423 A 0.741 0.741 0 0 1 289.199 91.038 Q 289.453 90.809 289.917 90.809 A 1.494 1.494 0 0 1 290.115 90.821 A 1.138 1.138 0 0 1 290.281 90.856 Z M 295.834 93.107 L 295.834 93.405 A 0.383 0.383 0 0 1 295.788 93.424 Q 295.74 93.44 295.67 93.452 A 1.457 1.457 0 0 1 295.647 93.456 Q 295.524 93.476 295.425 93.476 A 1.018 1.018 0 0 1 295.125 93.436 Q 294.678 93.298 294.678 92.689 L 294.678 91.159 L 294.31 91.159 L 294.31 90.971 L 294.678 90.809 L 294.843 90.26 L 295.068 90.26 L 295.068 90.856 L 295.815 90.856 L 295.815 91.159 L 295.068 91.159 L 295.068 92.673 A 0.785 0.785 0 0 0 295.079 92.811 Q 295.093 92.886 295.123 92.946 A 0.378 0.378 0 0 0 295.179 93.03 A 0.362 0.362 0 0 0 295.401 93.148 A 0.521 0.521 0 0 0 295.481 93.154 A 1.28 1.28 0 0 0 295.669 93.141 A 1.18 1.18 0 0 0 295.681 93.139 Q 295.773 93.124 295.828 93.109 A 0.586 0.586 0 0 0 295.834 93.107 Z M 287.368 90.837 L 287.314 91.199 Q 287.181 91.169 287.074 91.164 A 0.914 0.914 0 0 0 287.032 91.163 A 0.675 0.675 0 0 0 286.533 91.379 A 0.924 0.924 0 0 0 286.498 91.417 A 0.89 0.89 0 0 0 286.283 91.917 A 1.183 1.183 0 0 0 286.276 92.049 L 286.276 93.429 L 285.886 93.429 L 285.886 90.856 L 286.208 90.856 L 286.253 91.332 L 286.272 91.332 A 1.316 1.316 0 0 1 286.419 91.122 A 1.005 1.005 0 0 1 286.617 90.945 Q 286.819 90.809 287.06 90.809 A 1.789 1.789 0 0 1 287.22 90.816 A 1.306 1.306 0 0 1 287.368 90.837 Z M 288.239 90.856 L 288.239 93.429 L 287.849 93.429 L 287.849 90.856 L 288.239 90.856 Z M 290.147 93.37 L 289.68 93.37 A 0.896 0.896 0 0 0 289.519 93.384 Q 289.427 93.401 289.355 93.438 A 0.456 0.456 0 0 0 289.267 93.497 Q 289.119 93.624 289.119 93.861 A 0.391 0.391 0 0 0 289.145 94.006 Q 289.182 94.1 289.272 94.163 A 0.457 0.457 0 0 0 289.295 94.178 A 0.624 0.624 0 0 0 289.449 94.244 Q 289.595 94.286 289.8 94.286 Q 290.291 94.286 290.527 94.139 A 0.568 0.568 0 0 0 290.659 94.029 A 0.426 0.426 0 0 0 290.763 93.741 Q 290.763 93.612 290.713 93.531 A 0.246 0.246 0 0 0 290.633 93.451 A 0.37 0.37 0 0 0 290.546 93.413 Q 290.407 93.37 290.147 93.37 Z M 289.417 92.012 A 0.417 0.417 0 0 0 289.483 92.088 A 0.504 0.504 0 0 0 289.686 92.198 Q 289.763 92.221 289.855 92.226 A 1.003 1.003 0 0 0 289.908 92.227 Q 290.358 92.227 290.453 91.882 A 0.789 0.789 0 0 0 290.479 91.673 Q 290.479 91.093 289.901 91.093 Q 289.626 91.093 289.478 91.241 Q 289.353 91.366 289.334 91.595 A 1.025 1.025 0 0 0 289.331 91.68 Q 289.331 91.884 289.417 92.012 Z M 287.882 89.963 A 0.182 0.182 0 0 0 287.842 90.02 Q 287.816 90.075 287.816 90.159 Q 287.816 90.225 287.833 90.274 A 0.201 0.201 0 0 0 287.882 90.355 A 0.219 0.219 0 0 0 287.961 90.405 A 0.248 0.248 0 0 0 288.046 90.419 A 0.227 0.227 0 0 0 288.208 90.355 Q 288.256 90.31 288.27 90.233 A 0.403 0.403 0 0 0 288.276 90.159 A 0.446 0.446 0 0 0 288.274 90.116 Q 288.265 90.017 288.208 89.964 A 0.23 0.23 0 0 0 288.046 89.9 A 0.298 0.298 0 0 0 288.027 89.901 A 0.225 0.225 0 0 0 287.882 89.963 Z" id="right_labelLayer" stroke="#777777" fill="#777777" style="stroke:#777777;fill:#777777" vector-effect="non-scaling-stroke"/><path d="M 384.53 128.24 L 394.43 128.24 L 394.43 131.24 L 404.81 131.24 L 404.81 128.24 L 414.71 128.24 L 414.71 131.24 L 425.09 131.24 L 425.09 128.24 L 434.99 128.24 L 434.99 131.24 L 445.37 131.24 L 445.37 128.24 L 455.27 128.24 L 455.27 131.24 L 465.65 131.24 L 465.65 128.24 L 475.55 128.24 L 475.55 131.24 L 485.93 131.24 L 485.93 128.24 L 495.83 128.24 L 495.83 131.24 L 506.21 131.24 L 506.21 128.24 L 516.11 128.24 L 516.11 131.24 L 526.49 131.24 L 526.49 128.24 L 536.39 128.24 L 536.39 131.24 L 546.77 131.24 L 546.77 128.24 L 556.67 128.24 L 556.67 131.24 L 567.05 131.24 L 567.05 128.24 L 578.72 128.24 L 578.72 121.51 L 581.72 121.51 L 581.72 111.13 L 578.72 111.13 L 578.72 101.23 L 581.72 101.23 L 581.72 90.85 L 578.72 90.85 L 578.72 80.95 L 581.72 80.95 L 581.72 70.57 L 578.72 70.57 L 578.72 60.67 L 581.72 60.67 L 581.72 50.29 L 578.72 50.29 L 578.72 40.39 L 581.72 40.39 L 581.72 30.01 L 578.72 30.01 L 578.72 20.11 L 581.72 20.11 L 581.72 9.73 L 578.72 9.73 L 578.72 3 L 567.05 3 L 567.05 0 L 556.67 0 L 556.67 3 L 546.77 3 L 546.77 0 L 536.39 0 L 536.39 3 L 526.49 3 L 526.49 0 L 516.11 0 L 516.11 3 L 506.21 3 L 506.21 0 L 495.83 0 L 495.83 3 L 485.93 3 L 485.93 0 L 475.55 0 L 475.55 3 L 465.65 3 L 465.65 0 L 455.27 0 L 455.27 3 L 445.37 3 L 445.37 0 L 434.99 0 L 434.99 3 L 425.09 3 L 425.09 0 L 414.71 0 L 414.71 3 L 404.81 3 L 404.81 0 L 394.43 0 L 394.43 3 L 384.53 3 L 384.53 0 L 374.15 0 L 374.15 3 L 362.48 3 L 362.48 9.73 L 359.48 9.73 L 359.48 20.11 L 362.48 20.11 L 362.48 30.01 L 359.48 30.01 L 359.48 40.39 L 362.48 40.39 L 362.48 50.29 L 359.48 50.29 L 359.48 60.67 L 362.48 60.67 L 362.48 70.57 L 359.48 70.57 L 359.48 80.95 L 362.48 80.95 L 362.48 90.85 L 359.48 90.85 L 359.48 101.23 L 362.48 101.23 L 362.48 111.13 L 359.48 111.13 L 359.48 121.51 L 362.48 121.51 L 362.48 128.24 L 374.15 128.24 L 374.15 131.24 L 384.53 131.24 L 384.53 128.24 Z" id="bottom_outsideCutPath" stroke="#FF0000" stroke-width="0.1" style="stroke:#FF0000;stroke-width:0.1" vector-effect="non-scaling-stroke"/><path d="M 513.778 75.463 L 511.651 75.463 L 511.651 66.325 Q 511.651 65.273 511.369 64.55 A 2.571 2.571 0 0 0 510.933 63.806 A 2.239 2.239 0 0 0 509.892 63.133 Q 509.522 63.013 509.069 62.98 A 4.939 4.939 0 0 0 508.703 62.967 A 5.474 5.474 0 0 0 507.589 63.073 Q 506.927 63.21 506.428 63.528 A 2.817 2.817 0 0 0 505.768 64.107 A 3.516 3.516 0 0 0 505.172 65.186 Q 504.822 66.167 504.82 67.597 A 11.682 11.682 0 0 0 504.82 67.619 L 504.82 75.463 L 502.692 75.463 L 502.692 66.325 Q 502.692 65.273 502.411 64.55 A 2.571 2.571 0 0 0 501.975 63.806 A 2.232 2.232 0 0 0 500.948 63.139 Q 500.579 63.018 500.127 62.982 A 4.982 4.982 0 0 0 499.732 62.967 A 5.284 5.284 0 0 0 498.639 63.072 Q 497.964 63.215 497.462 63.55 A 2.789 2.789 0 0 0 496.803 64.165 A 3.568 3.568 0 0 0 496.274 65.17 Q 495.931 66.14 495.882 67.595 A 14.812 14.812 0 0 0 495.874 68.093 L 495.874 75.463 L 493.746 75.463 L 493.746 61.416 L 495.477 61.416 L 495.823 63.338 L 495.925 63.338 Q 496.528 62.313 497.623 61.736 A 5.051 5.051 0 0 1 499.618 61.177 A 6.101 6.101 0 0 1 500.078 61.16 A 6.966 6.966 0 0 1 501.646 61.323 Q 502.61 61.546 503.283 62.074 A 3.632 3.632 0 0 1 504.384 63.543 L 504.487 63.543 Q 505.115 62.441 506.306 61.8 A 5.385 5.385 0 0 1 508.282 61.2 A 6.714 6.714 0 0 1 509.024 61.16 Q 511.407 61.16 512.593 62.384 Q 513.456 63.275 513.691 64.944 A 9.758 9.758 0 0 1 513.778 66.299 L 513.778 75.463 Z M 429.549 73.656 L 429.395 73.656 L 428.947 75.463 L 427.421 75.463 L 427.421 55.52 L 429.549 55.52 L 429.549 60.365 Q 429.549 61.993 429.446 63.287 L 429.549 63.287 A 4.837 4.837 0 0 1 433.08 61.237 A 7.266 7.266 0 0 1 433.958 61.185 A 6.502 6.502 0 0 1 435.788 61.429 A 4.868 4.868 0 0 1 438.258 63.076 A 6.269 6.269 0 0 1 439.357 65.193 Q 439.627 66.065 439.729 67.11 A 13.656 13.656 0 0 1 439.789 68.426 A 12.474 12.474 0 0 1 439.624 70.525 Q 439.433 71.644 439.02 72.541 A 5.98 5.98 0 0 1 438.245 73.803 A 5.037 5.037 0 0 1 434.665 75.685 A 7.216 7.216 0 0 1 433.958 75.719 A 6.453 6.453 0 0 1 432.336 75.521 A 5.615 5.615 0 0 1 431.452 75.213 A 4.712 4.712 0 0 1 429.549 73.656 Z M 465.819 73.707 L 465.819 75.335 A 2.093 2.093 0 0 1 465.571 75.433 Q 465.306 75.521 464.928 75.588 A 7.956 7.956 0 0 1 464.801 75.61 Q 464.172 75.712 463.661 75.719 A 5.453 5.453 0 0 1 463.589 75.719 A 5.557 5.557 0 0 1 461.952 75.499 Q 460.152 74.943 459.681 72.988 A 6.687 6.687 0 0 1 459.514 71.426 L 459.514 63.069 L 457.502 63.069 L 457.502 62.044 L 459.514 61.16 L 460.411 58.161 L 461.641 58.161 L 461.641 61.416 L 465.717 61.416 L 465.717 63.069 L 461.641 63.069 L 461.641 71.336 A 4.284 4.284 0 0 0 461.703 72.088 Q 461.777 72.501 461.939 72.828 A 2.064 2.064 0 0 0 462.244 73.284 A 1.976 1.976 0 0 0 463.459 73.931 A 2.844 2.844 0 0 0 463.897 73.963 A 6.987 6.987 0 0 0 464.921 73.89 A 6.437 6.437 0 0 0 464.986 73.88 Q 465.512 73.797 465.819 73.707 Z M 475.086 73.707 L 475.086 75.335 A 2.093 2.093 0 0 1 474.837 75.433 Q 474.573 75.521 474.194 75.588 A 7.956 7.956 0 0 1 474.067 75.61 Q 473.439 75.712 472.928 75.719 A 5.453 5.453 0 0 1 472.856 75.719 A 5.557 5.557 0 0 1 471.218 75.499 Q 469.418 74.943 468.947 72.988 A 6.687 6.687 0 0 1 468.78 71.426 L 468.78 63.069 L 466.768 63.069 L 466.768 62.044 L 468.78 61.16 L 469.677 58.161 L 470.908 58.161 L 470.908 61.416 L 474.983 61.416 L 474.983 63.069 L 470.908 63.069 L 470.908 71.336 A 4.284 4.284 0 0 0 470.969 72.088 Q 471.043 72.501 471.205 72.828 A 2.064 2.064 0 0 0 471.51 73.284 A 1.976 1.976 0 0 0 472.725 73.931 A 2.844 2.844 0 0 0 473.163 73.963 A 6.987 6.987 0 0 0 474.187 73.89 A 6.437 6.437 0 0 0 474.253 73.88 Q 474.778 73.797 475.086 73.707 Z M 455.435 70.564 A 10.99 10.99 0 0 0 455.63 68.426 Q 455.63 67.061 455.341 65.926 A 6.625 6.625 0 0 0 453.894 63.12 A 5.57 5.57 0 0 0 451.308 61.453 A 7.149 7.149 0 0 0 449.209 61.16 A 8.263 8.263 0 0 0 447.725 61.287 A 5.627 5.627 0 0 0 444.442 63.076 Q 443.301 64.348 442.918 66.29 A 11.047 11.047 0 0 0 442.724 68.426 A 10.643 10.643 0 0 0 442.858 70.15 A 7.87 7.87 0 0 0 443.519 72.297 A 6.993 6.993 0 0 0 443.674 72.6 A 5.76 5.76 0 0 0 445.775 74.835 A 5.924 5.924 0 0 0 447.134 75.439 A 6.832 6.832 0 0 0 449.12 75.719 A 8.261 8.261 0 0 0 450.562 75.598 A 5.672 5.672 0 0 0 453.9 73.79 A 5.935 5.935 0 0 0 454.607 72.819 Q 455.183 71.833 455.435 70.564 Z M 489.822 70.564 A 10.99 10.99 0 0 0 490.017 68.426 Q 490.017 67.061 489.727 65.926 A 6.625 6.625 0 0 0 488.28 63.12 A 5.57 5.57 0 0 0 485.695 61.453 A 7.149 7.149 0 0 0 483.596 61.16 A 8.263 8.263 0 0 0 482.112 61.287 A 5.627 5.627 0 0 0 478.828 63.076 Q 477.688 64.348 477.304 66.29 A 11.047 11.047 0 0 0 477.111 68.426 A 10.643 10.643 0 0 0 477.244 70.15 A 7.87 7.87 0 0 0 477.905 72.297 A 6.993 6.993 0 0 0 478.06 72.6 A 5.76 5.76 0 0 0 480.161 74.835 A 5.924 5.924 0 0 0 481.521 75.439 A 6.832 6.832 0 0 0 483.506 75.719 A 8.261 8.261 0 0 0 484.949 75.598 A 5.672 5.672 0 0 0 488.287 73.79 A 5.935 5.935 0 0 0 488.993 72.819 Q 489.57 71.833 489.822 70.564 Z M 445.382 71.38 A 4.463 4.463 0 0 0 446.005 72.528 A 3.487 3.487 0 0 0 448.276 73.865 A 5.284 5.284 0 0 0 449.171 73.938 A 4.942 4.942 0 0 0 450.475 73.775 A 3.439 3.439 0 0 0 452.343 72.534 A 4.567 4.567 0 0 0 453.054 71.149 Q 453.263 70.509 453.355 69.727 A 11.207 11.207 0 0 0 453.426 68.426 A 10.615 10.615 0 0 0 453.325 66.914 Q 453.096 65.324 452.343 64.357 A 3.5 3.5 0 0 0 450.167 63.059 A 5.366 5.366 0 0 0 449.145 62.967 A 5.063 5.063 0 0 0 447.885 63.114 A 3.389 3.389 0 0 0 445.992 64.338 A 4.399 4.399 0 0 0 445.309 65.659 Q 445.107 66.267 445.012 67.01 A 11.242 11.242 0 0 0 444.929 68.426 Q 444.929 70.173 445.382 71.38 Z M 479.768 71.38 A 4.463 4.463 0 0 0 480.392 72.528 A 3.487 3.487 0 0 0 482.663 73.865 A 5.284 5.284 0 0 0 483.557 73.938 A 4.942 4.942 0 0 0 484.861 73.775 A 3.439 3.439 0 0 0 486.729 72.534 A 4.567 4.567 0 0 0 487.441 71.149 Q 487.65 70.509 487.741 69.727 A 11.207 11.207 0 0 0 487.812 68.426 A 10.615 10.615 0 0 0 487.712 66.914 Q 487.482 65.324 486.729 64.357 A 3.5 3.5 0 0 0 484.554 63.059 A 5.366 5.366 0 0 0 483.532 62.967 A 5.063 5.063 0 0 0 482.271 63.114 A 3.389 3.389 0 0 0 480.379 64.338 A 4.399 4.399 0 0 0 479.695 65.659 Q 479.493 66.267 479.399 67.01 A 11.242 11.242 0 0 0 479.315 68.426 Q 479.315 70.173 479.768 71.38 Z M 433.65 62.967 Q 431.471 62.967 430.51 64.216 Q 429.666 65.314 429.563 67.733 A 16.392 16.392 0 0 0 429.549 68.426 A 14.067 14.067 0 0 0 429.619 69.88 Q 429.772 71.347 430.261 72.24 A 3.209 3.209 0 0 0 430.536 72.662 Q 431.421 73.806 433.263 73.924 A 6.841 6.841 0 0 0 433.702 73.938 A 4.241 4.241 0 0 0 434.906 73.776 A 3.06 3.06 0 0 0 436.624 72.508 A 4.884 4.884 0 0 0 437.228 71.201 Q 437.418 70.581 437.506 69.829 A 12.191 12.191 0 0 0 437.585 68.401 A 12.57 12.57 0 0 0 437.509 66.969 Q 437.329 65.402 436.721 64.456 A 3.53 3.53 0 0 0 436.624 64.312 A 3.103 3.103 0 0 0 434.648 63.062 A 4.921 4.921 0 0 0 433.65 62.967 Z" id="bottom_labelLayer" stroke="#777777" fill="#777777" style="stroke:#777777;fill:#777777" vector-effect="non-scaling-stroke"/></g></svg>